<?xml version="1.0" encoding="utf-8" standalone="no"?>
<!DOCTYPE svg PUBLIC "-//W3C//DTD SVG 1.1//EN"
  "http://www.w3.org/Graphics/SVG/1.1/DTD/svg11.dtd">
<svg xmlns:xlink="http://www.w3.org/1999/xlink" width="460.8pt" height="345.6pt" viewBox="0 0 460.8 345.6" xmlns="http://www.w3.org/2000/svg" version="1.1">
 <metadata>
  <rdf:RDF xmlns:dc="http://purl.org/dc/elements/1.1/" xmlns:cc="http://creativecommons.org/ns#" xmlns:rdf="http://www.w3.org/1999/02/22-rdf-syntax-ns#">
   <cc:Work>
    <dc:type rdf:resource="http://purl.org/dc/dcmitype/StillImage"/>
    <dc:date>2024-02-14T14:44:01.504951</dc:date>
    <dc:format>image/svg+xml</dc:format>
    <dc:creator>
     <cc:Agent>
      <dc:title>Matplotlib v3.7.1, https://matplotlib.org/</dc:title>
     </cc:Agent>
    </dc:creator>
   </cc:Work>
  </rdf:RDF>
 </metadata>
 <defs>
  <style type="text/css">*{stroke-linejoin: round; stroke-linecap: butt}</style>
 </defs>
 <g id="figure_1">
  <g id="patch_1">
   <path d="M 0 345.6 
L 460.8 345.6 
L 460.8 0 
L 0 0 
z
" style="fill: #ffffff"/>
  </g>
  <g id="axes_1">
   <g id="patch_2">
    <path d="M 103.104 307.584 
L 369.216 307.584 
L 369.216 41.472 
L 103.104 41.472 
z
" style="fill: #ffffff"/>
   </g>
   <g id="patch_3">
    <path d="M 221.376 218.88 
C 229.217525 218.88 236.738938 215.764529 242.283733 210.219733 
C 247.828529 204.674938 250.944 197.153525 250.944 189.312 
C 250.944 181.470475 247.828529 173.949062 242.283733 168.404267 
C 236.738938 162.859471 229.217525 159.744 221.376 159.744 
C 213.534475 159.744 206.013062 162.859471 200.468267 168.404267 
C 194.923471 173.949062 191.808 181.470475 191.808 189.312 
C 191.808 197.153525 194.923471 204.674938 200.468267 210.219733 
C 206.013062 215.764529 213.534475 218.88 221.376 218.88 
z
" clip-path="url(#pe83befbc09)" style="fill: #56b391; stroke: #56b391; stroke-linejoin: miter"/>
   </g>
   <g id="patch_4">
    <path d="M 250.944 196.40832 
C 252.825966 196.40832 254.631105 195.660607 255.961856 194.329856 
C 257.292607 192.999105 258.04032 191.193966 258.04032 189.312 
C 258.04032 187.430034 257.292607 185.624895 255.961856 184.294144 
C 254.631105 182.963393 252.825966 182.21568 250.944 182.21568 
C 249.062034 182.21568 247.256895 182.963393 245.926144 184.294144 
C 244.595393 185.624895 243.84768 187.430034 243.84768 189.312 
C 243.84768 191.193966 244.595393 192.999105 245.926144 194.329856 
C 247.256895 195.660607 249.062034 196.40832 250.944 196.40832 
z
" clip-path="url(#pe83befbc09)" style="fill: #c986ff; stroke: #c986ff; stroke-linejoin: miter"/>
   </g>
   <g id="patch_5">
    <path d="M 206.592 170.801681 
C 208.473966 170.801681 210.279105 170.053968 211.609856 168.723217 
C 212.940607 167.392466 213.68832 165.587327 213.68832 163.705361 
C 213.68832 161.823395 212.940607 160.018256 211.609856 158.687505 
C 210.279105 157.356754 208.473966 156.609041 206.592 156.609041 
C 204.710034 156.609041 202.904895 157.356754 201.574144 158.687505 
C 200.243393 160.018256 199.49568 161.823395 199.49568 163.705361 
C 199.49568 165.587327 200.243393 167.392466 201.574144 168.723217 
C 202.904895 170.053968 204.710034 170.801681 206.592 170.801681 
z
" clip-path="url(#pe83befbc09)" style="fill: #c986ff; stroke: #c986ff; stroke-linejoin: miter"/>
   </g>
   <g id="patch_6">
    <path d="M 206.592 222.014959 
C 208.473966 222.014959 210.279105 221.267246 211.609856 219.936495 
C 212.940607 218.605744 213.68832 216.800605 213.68832 214.918639 
C 213.68832 213.036673 212.940607 211.231534 211.609856 209.900783 
C 210.279105 208.570032 208.473966 207.822319 206.592 207.822319 
C 204.710034 207.822319 202.904895 208.570032 201.574144 209.900783 
C 200.243393 211.231534 199.49568 213.036673 199.49568 214.918639 
C 199.49568 216.800605 200.243393 218.605744 201.574144 219.936495 
C 202.904895 221.267246 204.710034 222.014959 206.592 222.014959 
z
" clip-path="url(#pe83befbc09)" style="fill: #c986ff; stroke: #c986ff; stroke-linejoin: miter"/>
   </g>
   <g id="patch_7">
    <path d="M 281.718857 218.88 
C 289.560382 218.88 297.081795 215.764529 302.62659 210.219733 
C 308.171386 204.674938 311.286857 197.153525 311.286857 189.312 
C 311.286857 181.470475 308.171386 173.949062 302.62659 168.404267 
C 297.081795 162.859471 289.560382 159.744 281.718857 159.744 
C 273.877332 159.744 266.35592 162.859471 260.811124 168.404267 
C 255.266328 173.949062 252.150857 181.470475 252.150857 189.312 
C 252.150857 197.153525 255.266328 204.674938 260.811124 210.219733 
C 266.35592 215.764529 273.877332 218.88 281.718857 218.88 
z
" clip-path="url(#pe83befbc09)" style="fill: #56b391; stroke: #56b391; stroke-linejoin: miter"/>
   </g>
   <g id="patch_8">
    <path d="M 252.150857 196.40832 
C 254.032823 196.40832 255.837962 195.660607 257.168713 194.329856 
C 258.499464 192.999105 259.247177 191.193966 259.247177 189.312 
C 259.247177 187.430034 258.499464 185.624895 257.168713 184.294144 
C 255.837962 182.963393 254.032823 182.21568 252.150857 182.21568 
C 250.268891 182.21568 248.463752 182.963393 247.133001 184.294144 
C 245.80225 185.624895 245.054537 187.430034 245.054537 189.312 
C 245.054537 191.193966 245.80225 192.999105 247.133001 194.329856 
C 248.463752 195.660607 250.268891 196.40832 252.150857 196.40832 
z
" clip-path="url(#pe83befbc09)" style="fill: #c986ff; stroke: #c986ff; stroke-linejoin: miter"/>
   </g>
   <g id="patch_9">
    <path d="M 296.502857 222.014959 
C 298.384823 222.014959 300.189962 221.267246 301.520713 219.936495 
C 302.851464 218.605744 303.599177 216.800605 303.599177 214.918639 
C 303.599177 213.036673 302.851464 211.231534 301.520713 209.900783 
C 300.189962 208.570032 298.384823 207.822319 296.502857 207.822319 
C 294.620891 207.822319 292.815752 208.570032 291.485001 209.900783 
C 290.15425 211.231534 289.406537 213.036673 289.406537 214.918639 
C 289.406537 216.800605 290.15425 218.605744 291.485001 219.936495 
C 292.815752 221.267246 294.620891 222.014959 296.502857 222.014959 
z
" clip-path="url(#pe83befbc09)" style="fill: #c986ff; stroke: #c986ff; stroke-linejoin: miter"/>
   </g>
   <g id="patch_10">
    <path d="M 296.502857 170.801681 
C 298.384823 170.801681 300.189962 170.053968 301.520713 168.723217 
C 302.851464 167.392466 303.599177 165.587327 303.599177 163.705361 
C 303.599177 161.823395 302.851464 160.018256 301.520713 158.687505 
C 300.189962 157.356754 298.384823 156.609041 296.502857 156.609041 
C 294.620891 156.609041 292.815752 157.356754 291.485001 158.687505 
C 290.15425 160.018256 289.406537 161.823395 289.406537 163.705361 
C 289.406537 165.587327 290.15425 167.392466 291.485001 168.723217 
C 292.815752 170.053968 294.620891 170.801681 296.502857 170.801681 
z
" clip-path="url(#pe83befbc09)" style="fill: #c986ff; stroke: #c986ff; stroke-linejoin: miter"/>
   </g>
   <g id="patch_11">
    <path d="M 311.890286 166.621553 
C 319.731811 166.621553 327.253223 163.506082 332.798019 157.961286 
C 338.342815 152.41649 341.458286 144.895078 341.458286 137.053553 
C 341.458286 129.212028 338.342815 121.690615 332.798019 116.145819 
C 327.253223 110.601024 319.731811 107.485553 311.890286 107.485553 
C 304.04876 107.485553 296.527348 110.601024 290.982552 116.145819 
C 285.437757 121.690615 282.322286 129.212028 282.322286 137.053553 
C 282.322286 144.895078 285.437757 152.41649 290.982552 157.961286 
C 296.527348 163.506082 304.04876 166.621553 311.890286 166.621553 
z
" clip-path="url(#pe83befbc09)" style="fill: #56b391; stroke: #56b391; stroke-linejoin: miter"/>
   </g>
   <g id="patch_12">
    <path d="M 341.458286 144.149873 
C 343.340252 144.149873 345.145391 143.40216 346.476142 142.071409 
C 347.806893 140.740658 348.554606 138.935519 348.554606 137.053553 
C 348.554606 135.171587 347.806893 133.366448 346.476142 132.035697 
C 345.145391 130.704946 343.340252 129.957233 341.458286 129.957233 
C 339.57632 129.957233 337.771181 130.704946 336.44043 132.035697 
C 335.109679 133.366448 334.361966 135.171587 334.361966 137.053553 
C 334.361966 138.935519 335.109679 140.740658 336.44043 142.071409 
C 337.771181 143.40216 339.57632 144.149873 341.458286 144.149873 
z
" clip-path="url(#pe83befbc09)" style="fill: #c986ff; stroke: #c986ff; stroke-linejoin: miter"/>
   </g>
   <g id="patch_13">
    <path d="M 297.106286 118.543234 
C 298.988252 118.543234 300.793391 117.795521 302.124142 116.46477 
C 303.454893 115.134019 304.202606 113.32888 304.202606 111.446914 
C 304.202606 109.564948 303.454893 107.759809 302.124142 106.429058 
C 300.793391 105.098307 298.988252 104.350594 297.106286 104.350594 
C 295.22432 104.350594 293.419181 105.098307 292.08843 106.429058 
C 290.757679 107.759809 290.009966 109.564948 290.009966 111.446914 
C 290.009966 113.32888 290.757679 115.134019 292.08843 116.46477 
C 293.419181 117.795521 295.22432 118.543234 297.106286 118.543234 
z
" clip-path="url(#pe83befbc09)" style="fill: #c986ff; stroke: #c986ff; stroke-linejoin: miter"/>
   </g>
   <g id="patch_14">
    <path d="M 297.106286 169.756512 
C 298.988252 169.756512 300.793391 169.008799 302.124142 167.678048 
C 303.454893 166.347297 304.202606 164.542158 304.202606 162.660192 
C 304.202606 160.778226 303.454893 158.973087 302.124142 157.642336 
C 300.793391 156.311585 298.988252 155.563872 297.106286 155.563872 
C 295.22432 155.563872 293.419181 156.311585 292.08843 157.642336 
C 290.757679 158.973087 290.009966 160.778226 290.009966 162.660192 
C 290.009966 164.542158 290.757679 166.347297 292.08843 167.678048 
C 293.419181 169.008799 295.22432 169.756512 297.106286 169.756512 
z
" clip-path="url(#pe83befbc09)" style="fill: #c986ff; stroke: #c986ff; stroke-linejoin: miter"/>
   </g>
   <g id="patch_15">
    <path d="M 191.204571 271.138447 
C 199.046097 271.138447 206.567509 268.022976 212.112305 262.478181 
C 217.6571 256.933385 220.772571 249.411972 220.772571 241.570447 
C 220.772571 233.728922 217.6571 226.20751 212.112305 220.662714 
C 206.567509 215.117918 199.046097 212.002447 191.204571 212.002447 
C 183.363046 212.002447 175.841634 215.117918 170.296838 220.662714 
C 164.752042 226.20751 161.636571 233.728922 161.636571 241.570447 
C 161.636571 249.411972 164.752042 256.933385 170.296838 262.478181 
C 175.841634 268.022976 183.363046 271.138447 191.204571 271.138447 
z
" clip-path="url(#pe83befbc09)" style="fill: #56b391; stroke: #56b391; stroke-linejoin: miter"/>
   </g>
   <g id="patch_16">
    <path d="M 205.988571 223.060128 
C 207.870537 223.060128 209.675676 222.312415 211.006427 220.981664 
C 212.337178 219.650913 213.084891 217.845774 213.084891 215.963808 
C 213.084891 214.081842 212.337178 212.276703 211.006427 210.945952 
C 209.675676 209.615201 207.870537 208.867488 205.988571 208.867488 
C 204.106605 208.867488 202.301466 209.615201 200.970715 210.945952 
C 199.639964 212.276703 198.892251 214.081842 198.892251 215.963808 
C 198.892251 217.845774 199.639964 219.650913 200.970715 220.981664 
C 202.301466 222.312415 204.106605 223.060128 205.988571 223.060128 
z
" clip-path="url(#pe83befbc09)" style="fill: #c986ff; stroke: #c986ff; stroke-linejoin: miter"/>
   </g>
   <g id="patch_17">
    <path d="M 161.636571 248.666767 
C 163.518537 248.666767 165.323676 247.919054 166.654427 246.588303 
C 167.985178 245.257552 168.732891 243.452413 168.732891 241.570447 
C 168.732891 239.688481 167.985178 237.883342 166.654427 236.552591 
C 165.323676 235.22184 163.518537 234.474127 161.636571 234.474127 
C 159.754605 234.474127 157.949466 235.22184 156.618715 236.552591 
C 155.287964 237.883342 154.540251 239.688481 154.540251 241.570447 
C 154.540251 243.452413 155.287964 245.257552 156.618715 246.588303 
C 157.949466 247.919054 159.754605 248.666767 161.636571 248.666767 
z
" clip-path="url(#pe83befbc09)" style="fill: #c986ff; stroke: #c986ff; stroke-linejoin: miter"/>
   </g>
   <g id="patch_18">
    <path d="M 205.988571 274.273406 
C 207.870537 274.273406 209.675676 273.525693 211.006427 272.194942 
C 212.337178 270.864191 213.084891 269.059052 213.084891 267.177086 
C 213.084891 265.29512 212.337178 263.489981 211.006427 262.15923 
C 209.675676 260.828479 207.870537 260.080766 205.988571 260.080766 
C 204.106605 260.080766 202.301466 260.828479 200.970715 262.15923 
C 199.639964 263.489981 198.892251 265.29512 198.892251 267.177086 
C 198.892251 269.059052 199.639964 270.864191 200.970715 272.194942 
C 202.301466 273.525693 204.106605 274.273406 205.988571 274.273406 
z
" clip-path="url(#pe83befbc09)" style="fill: #c986ff; stroke: #c986ff; stroke-linejoin: miter"/>
   </g>
   <g id="matplotlib.axis_1"/>
   <g id="matplotlib.axis_2"/>
   <g id="line2d_1">
    <path d="M 191.204571 241.570447 
L 221.376 189.312 
" clip-path="url(#pe83befbc09)" style="fill: none; stroke-dasharray: 5.55,2.4; stroke-dashoffset: 0; stroke: #000000; stroke-width: 1.5"/>
   </g>
   <g id="line2d_2">
    <path d="M 191.204571 241.570447 
L 281.718857 189.312 
" clip-path="url(#pe83befbc09)" style="fill: none; stroke-dasharray: 9.6,2.4,1.5,2.4; stroke-dashoffset: 0; stroke: #000000; stroke-width: 1.5"/>
   </g>
   <g id="line2d_3">
    <path d="M 191.204571 241.570447 
L 311.890286 137.053553 
" clip-path="url(#pe83befbc09)" style="fill: none; stroke-dasharray: 1.5,2.475; stroke-dashoffset: 0; stroke: #000000; stroke-width: 1.5"/>
   </g>
   <g id="text_1">
    <!-- 1 -->
    <g transform="translate(221.376 189.312) scale(0.15 -0.15)">
     <defs>
      <path id="DejaVuSans-31" d="M 794 531 
L 1825 531 
L 1825 4091 
L 703 3866 
L 703 4441 
L 1819 4666 
L 2450 4666 
L 2450 531 
L 3481 531 
L 3481 0 
L 794 0 
L 794 531 
z
" transform="scale(0.015625)"/>
     </defs>
     <use xlink:href="#DejaVuSans-31"/>
    </g>
   </g>
   <g id="text_2">
    <!-- $\sqrt{3}$ -->
    <g transform="translate(281.718857 189.312) scale(0.15 -0.15)">
     <defs>
      <path id="STIXSizeOneSym-Regular-221a" d="M 6970 9933 
L 3373 -1888 
L 3104 -1888 
L 1626 2918 
Q 1555 3149 1465 3251 
Q 1376 3354 1229 3354 
Q 1011 3354 794 3181 
L 717 3309 
L 1766 4115 
L 1926 4115 
L 3379 -602 
L 3405 -602 
L 6605 9933 
L 6970 9933 
z
" transform="scale(0.015625)"/>
      <path id="DejaVuSans-33" d="M 2597 2516 
Q 3050 2419 3304 2112 
Q 3559 1806 3559 1356 
Q 3559 666 3084 287 
Q 2609 -91 1734 -91 
Q 1441 -91 1130 -33 
Q 819 25 488 141 
L 488 750 
Q 750 597 1062 519 
Q 1375 441 1716 441 
Q 2309 441 2620 675 
Q 2931 909 2931 1356 
Q 2931 1769 2642 2001 
Q 2353 2234 1838 2234 
L 1294 2234 
L 1294 2753 
L 1863 2753 
Q 2328 2753 2575 2939 
Q 2822 3125 2822 3475 
Q 2822 3834 2567 4026 
Q 2313 4219 1838 4219 
Q 1578 4219 1281 4162 
Q 984 4106 628 3988 
L 628 4550 
Q 988 4650 1302 4700 
Q 1616 4750 1894 4750 
Q 2613 4750 3031 4423 
Q 3450 4097 3450 3541 
Q 3450 3153 3228 2886 
Q 3006 2619 2597 2516 
z
" transform="scale(0.015625)"/>
     </defs>
     <use xlink:href="#STIXSizeOneSym-Regular-221a" transform="translate(0 16.203125) scale(0.578716)"/>
     <use xlink:href="#DejaVuSans-33" transform="translate(73.657333 0.53125)"/>
     <path d="M 61.157333 99.5 
L 61.157333 105.75 
L 149.78038 105.75 
L 149.78038 99.5 
L 61.157333 99.5 
z
"/>
    </g>
   </g>
   <g id="text_3">
    <!-- $\sqrt{7}$ -->
    <g transform="translate(311.890286 137.053553) scale(0.15 -0.15)">
     <defs>
      <path id="DejaVuSans-37" d="M 525 4666 
L 3525 4666 
L 3525 4397 
L 1831 0 
L 1172 0 
L 2766 4134 
L 525 4134 
L 525 4666 
z
" transform="scale(0.015625)"/>
     </defs>
     <use xlink:href="#STIXSizeOneSym-Regular-221a" transform="translate(0 17.484375) scale(0.563912)"/>
     <use xlink:href="#DejaVuSans-37" transform="translate(72.104874 0.84375)"/>
     <path d="M 59.604874 98.5 
L 59.604874 104.75 
L 148.227921 104.75 
L 148.227921 98.5 
L 59.604874 98.5 
z
"/>
    </g>
   </g>
  </g>
 </g>
 <defs>
  <clipPath id="pe83befbc09">
   <rect x="103.104" y="41.472" width="266.112" height="266.112"/>
  </clipPath>
 </defs>
</svg>
