<?xml version="1.0" encoding="utf-8" standalone="no"?>
<!DOCTYPE svg PUBLIC "-//W3C//DTD SVG 1.1//EN"
  "http://www.w3.org/Graphics/SVG/1.1/DTD/svg11.dtd">
<svg xmlns:xlink="http://www.w3.org/1999/xlink" width="460.8pt" height="345.6pt" viewBox="0 0 460.8 345.6" xmlns="http://www.w3.org/2000/svg" version="1.1">
 <metadata>
  <rdf:RDF xmlns:dc="http://purl.org/dc/elements/1.1/" xmlns:cc="http://creativecommons.org/ns#" xmlns:rdf="http://www.w3.org/1999/02/22-rdf-syntax-ns#">
   <cc:Work>
    <dc:type rdf:resource="http://purl.org/dc/dcmitype/StillImage"/>
    <dc:date>2024-02-14T14:46:07.046134</dc:date>
    <dc:format>image/svg+xml</dc:format>
    <dc:creator>
     <cc:Agent>
      <dc:title>Matplotlib v3.7.1, https://matplotlib.org/</dc:title>
     </cc:Agent>
    </dc:creator>
   </cc:Work>
  </rdf:RDF>
 </metadata>
 <defs>
  <style type="text/css">*{stroke-linejoin: round; stroke-linecap: butt}</style>
 </defs>
 <g id="figure_1">
  <g id="patch_1">
   <path d="M 0 345.6 
L 460.8 345.6 
L 460.8 0 
L 0 0 
z
" style="fill: #ffffff"/>
  </g>
  <g id="axes_1">
   <g id="patch_2">
    <path d="M 103.104 307.584 
L 369.216 307.584 
L 369.216 41.472 
L 103.104 41.472 
z
" style="fill: #ffffff"/>
   </g>
   <g id="patch_3">
    <path d="M 236.16 229.968 
C 250.86286 229.968 264.965508 224.126492 275.362 213.73 
C 285.758492 203.333508 291.6 189.23086 291.6 174.528 
C 291.6 159.82514 285.758492 145.722492 275.362 135.326 
C 264.965508 124.929508 250.86286 119.088 236.16 119.088 
C 221.45714 119.088 207.354492 124.929508 196.958 135.326 
C 186.561508 145.722492 180.72 159.82514 180.72 174.528 
C 180.72 189.23086 186.561508 203.333508 196.958 213.73 
C 207.354492 224.126492 221.45714 229.968 236.16 229.968 
z
" clip-path="url(#p5e2c9f856f)" style="fill: #56b391; stroke: #56b391; stroke-linejoin: miter"/>
   </g>
   <g id="patch_4">
    <path d="M 291.6 187.8336 
C 295.128686 187.8336 298.513322 186.431638 301.00848 183.93648 
C 303.503638 181.441322 304.9056 178.056686 304.9056 174.528 
C 304.9056 170.999314 303.503638 167.614678 301.00848 165.11952 
C 298.513322 162.624362 295.128686 161.2224 291.6 161.2224 
C 288.071314 161.2224 284.686678 162.624362 282.19152 165.11952 
C 279.696362 167.614678 278.2944 170.999314 278.2944 174.528 
C 278.2944 178.056686 279.696362 181.441322 282.19152 183.93648 
C 284.686678 186.431638 288.071314 187.8336 291.6 187.8336 
z
" clip-path="url(#p5e2c9f856f)" style="fill: #c986ff; stroke: #c986ff; stroke-linejoin: miter"/>
   </g>
   <g id="patch_5">
    <path d="M 208.44 139.821152 
C 211.968686 139.821152 215.353322 138.41919 217.84848 135.924032 
C 220.343638 133.428874 221.7456 130.044238 221.7456 126.515552 
C 221.7456 122.986865 220.343638 119.60223 217.84848 117.107072 
C 215.353322 114.611914 211.968686 113.209952 208.44 113.209952 
C 204.911314 113.209952 201.526678 114.611914 199.03152 117.107072 
C 196.536362 119.60223 195.1344 122.986865 195.1344 126.515552 
C 195.1344 130.044238 196.536362 133.428874 199.03152 135.924032 
C 201.526678 138.41919 204.911314 139.821152 208.44 139.821152 
z
" clip-path="url(#p5e2c9f856f)" style="fill: #c986ff; stroke: #c986ff; stroke-linejoin: miter"/>
   </g>
   <g id="patch_6">
    <path d="M 208.44 235.846048 
C 211.968686 235.846048 215.353322 234.444086 217.84848 231.948928 
C 220.343638 229.45377 221.7456 226.069135 221.7456 222.540448 
C 221.7456 219.011762 220.343638 215.627126 217.84848 213.131968 
C 215.353322 210.63681 211.968686 209.234848 208.44 209.234848 
C 204.911314 209.234848 201.526678 210.63681 199.03152 213.131968 
C 196.536362 215.627126 195.1344 219.011762 195.1344 222.540448 
C 195.1344 226.069135 196.536362 229.45377 199.03152 231.948928 
C 201.526678 234.444086 204.911314 235.846048 208.44 235.846048 
z
" clip-path="url(#p5e2c9f856f)" style="fill: #c986ff; stroke: #c986ff; stroke-linejoin: miter"/>
   </g>
   <g id="matplotlib.axis_1"/>
   <g id="matplotlib.axis_2"/>
   <g id="line2d_1">
    <path d="M 258.336 141.264 
L 280.512 108 
" clip-path="url(#p5e2c9f856f)" style="fill: none; stroke: #000000; stroke-width: 1.5; stroke-linecap: square"/>
   </g>
   <g id="line2d_2">
    <path d="M 297.144 185.616 
L 319.32 207.792 
" clip-path="url(#p5e2c9f856f)" style="fill: none; stroke: #000000; stroke-width: 1.5; stroke-linecap: square"/>
   </g>
   <g id="text_1">
    <!-- core -->
    <g transform="translate(280.512 108) scale(0.15 -0.15)">
     <defs>
      <path id="DejaVuSans-63" d="M 3122 3366 
L 3122 2828 
Q 2878 2963 2633 3030 
Q 2388 3097 2138 3097 
Q 1578 3097 1268 2742 
Q 959 2388 959 1747 
Q 959 1106 1268 751 
Q 1578 397 2138 397 
Q 2388 397 2633 464 
Q 2878 531 3122 666 
L 3122 134 
Q 2881 22 2623 -34 
Q 2366 -91 2075 -91 
Q 1284 -91 818 406 
Q 353 903 353 1747 
Q 353 2603 823 3093 
Q 1294 3584 2113 3584 
Q 2378 3584 2631 3529 
Q 2884 3475 3122 3366 
z
" transform="scale(0.015625)"/>
      <path id="DejaVuSans-6f" d="M 1959 3097 
Q 1497 3097 1228 2736 
Q 959 2375 959 1747 
Q 959 1119 1226 758 
Q 1494 397 1959 397 
Q 2419 397 2687 759 
Q 2956 1122 2956 1747 
Q 2956 2369 2687 2733 
Q 2419 3097 1959 3097 
z
M 1959 3584 
Q 2709 3584 3137 3096 
Q 3566 2609 3566 1747 
Q 3566 888 3137 398 
Q 2709 -91 1959 -91 
Q 1206 -91 779 398 
Q 353 888 353 1747 
Q 353 2609 779 3096 
Q 1206 3584 1959 3584 
z
" transform="scale(0.015625)"/>
      <path id="DejaVuSans-72" d="M 2631 2963 
Q 2534 3019 2420 3045 
Q 2306 3072 2169 3072 
Q 1681 3072 1420 2755 
Q 1159 2438 1159 1844 
L 1159 0 
L 581 0 
L 581 3500 
L 1159 3500 
L 1159 2956 
Q 1341 3275 1631 3429 
Q 1922 3584 2338 3584 
Q 2397 3584 2469 3576 
Q 2541 3569 2628 3553 
L 2631 2963 
z
" transform="scale(0.015625)"/>
      <path id="DejaVuSans-65" d="M 3597 1894 
L 3597 1613 
L 953 1613 
Q 991 1019 1311 708 
Q 1631 397 2203 397 
Q 2534 397 2845 478 
Q 3156 559 3463 722 
L 3463 178 
Q 3153 47 2828 -22 
Q 2503 -91 2169 -91 
Q 1331 -91 842 396 
Q 353 884 353 1716 
Q 353 2575 817 3079 
Q 1281 3584 2069 3584 
Q 2775 3584 3186 3129 
Q 3597 2675 3597 1894 
z
M 3022 2063 
Q 3016 2534 2758 2815 
Q 2500 3097 2075 3097 
Q 1594 3097 1305 2825 
Q 1016 2553 972 2059 
L 3022 2063 
z
" transform="scale(0.015625)"/>
     </defs>
     <use xlink:href="#DejaVuSans-63"/>
     <use xlink:href="#DejaVuSans-6f" x="54.980469"/>
     <use xlink:href="#DejaVuSans-72" x="116.162109"/>
     <use xlink:href="#DejaVuSans-65" x="155.025391"/>
    </g>
   </g>
   <g id="text_2">
    <!-- patch -->
    <g transform="translate(319.32 207.792) scale(0.15 -0.15)">
     <defs>
      <path id="DejaVuSans-70" d="M 1159 525 
L 1159 -1331 
L 581 -1331 
L 581 3500 
L 1159 3500 
L 1159 2969 
Q 1341 3281 1617 3432 
Q 1894 3584 2278 3584 
Q 2916 3584 3314 3078 
Q 3713 2572 3713 1747 
Q 3713 922 3314 415 
Q 2916 -91 2278 -91 
Q 1894 -91 1617 61 
Q 1341 213 1159 525 
z
M 3116 1747 
Q 3116 2381 2855 2742 
Q 2594 3103 2138 3103 
Q 1681 3103 1420 2742 
Q 1159 2381 1159 1747 
Q 1159 1113 1420 752 
Q 1681 391 2138 391 
Q 2594 391 2855 752 
Q 3116 1113 3116 1747 
z
" transform="scale(0.015625)"/>
      <path id="DejaVuSans-61" d="M 2194 1759 
Q 1497 1759 1228 1600 
Q 959 1441 959 1056 
Q 959 750 1161 570 
Q 1363 391 1709 391 
Q 2188 391 2477 730 
Q 2766 1069 2766 1631 
L 2766 1759 
L 2194 1759 
z
M 3341 1997 
L 3341 0 
L 2766 0 
L 2766 531 
Q 2569 213 2275 61 
Q 1981 -91 1556 -91 
Q 1019 -91 701 211 
Q 384 513 384 1019 
Q 384 1609 779 1909 
Q 1175 2209 1959 2209 
L 2766 2209 
L 2766 2266 
Q 2766 2663 2505 2880 
Q 2244 3097 1772 3097 
Q 1472 3097 1187 3025 
Q 903 2953 641 2809 
L 641 3341 
Q 956 3463 1253 3523 
Q 1550 3584 1831 3584 
Q 2591 3584 2966 3190 
Q 3341 2797 3341 1997 
z
" transform="scale(0.015625)"/>
      <path id="DejaVuSans-74" d="M 1172 4494 
L 1172 3500 
L 2356 3500 
L 2356 3053 
L 1172 3053 
L 1172 1153 
Q 1172 725 1289 603 
Q 1406 481 1766 481 
L 2356 481 
L 2356 0 
L 1766 0 
Q 1100 0 847 248 
Q 594 497 594 1153 
L 594 3053 
L 172 3053 
L 172 3500 
L 594 3500 
L 594 4494 
L 1172 4494 
z
" transform="scale(0.015625)"/>
      <path id="DejaVuSans-68" d="M 3513 2113 
L 3513 0 
L 2938 0 
L 2938 2094 
Q 2938 2591 2744 2837 
Q 2550 3084 2163 3084 
Q 1697 3084 1428 2787 
Q 1159 2491 1159 1978 
L 1159 0 
L 581 0 
L 581 4863 
L 1159 4863 
L 1159 2956 
Q 1366 3272 1645 3428 
Q 1925 3584 2291 3584 
Q 2894 3584 3203 3211 
Q 3513 2838 3513 2113 
z
" transform="scale(0.015625)"/>
     </defs>
     <use xlink:href="#DejaVuSans-70"/>
     <use xlink:href="#DejaVuSans-61" x="63.476562"/>
     <use xlink:href="#DejaVuSans-74" x="124.755859"/>
     <use xlink:href="#DejaVuSans-63" x="163.964844"/>
     <use xlink:href="#DejaVuSans-68" x="218.945312"/>
    </g>
   </g>
  </g>
 </g>
 <defs>
  <clipPath id="p5e2c9f856f">
   <rect x="103.104" y="41.472" width="266.112" height="266.112"/>
  </clipPath>
 </defs>
</svg>
